<svg xmlns="http://www.w3.org/2000/svg" width="18" height="18" viewBox="-1 -1 18 18"><path data-name="incomplete icon.svg" d="M7.994,16.008a8,8,0,1,1,8-8A8,8,0,0,1,7.994,16.008Zm2.666-4.665a0.328,0.328,0,0,0-.332-0.333h-1V5.677a0.329,0.329,0,0,0-.333-0.333H5.66a0.329,0.329,0,0,0-.333.333V7.343a0.329,0.329,0,0,0,.333.333h1v3.333h-1a0.329,0.329,0,0,0-.333.333v1.666a0.329,0.329,0,0,0,.333.333h4.667a0.329,0.329,0,0,0,.332-0.333V11.342ZM9.327,2.011a0.329,0.329,0,0,0-.333-0.333h-2a0.329,0.329,0,0,0-.332.333V3.677a0.329,0.329,0,0,0,.332.333h2a0.329,0.329,0,0,0,.333-0.333V2.011Z" style="fill:#dab24f;fill-rule:evenodd"/></svg>