<svg version="1.1" xmlns="http://www.w3.org/2000/svg" width="325" height="168" viewBox="0 0 325 168" style="enable-background:new 0 0 325 168"><path d="M324.75,163.75c0,2.2-1.8,4-4,4H4.25c-2.2,0-4-1.8-4-4V4.25c0-2.2,1.8-4,4-4h316.5c2.2,0,4,1.8,4,4V163.75z" style="fill:#fff"/><g style="fill:#666"><path d="M110.287,14.48h4.064c0.661,0,1.218,0.049,1.671,0.146c0.453,0.098,0.818,0.247,1.096,0.447
		c0.277,0.2,0.477,0.449,0.6,0.747c0.123,0.298,0.184,0.646,0.184,1.046c0,0.384-0.063,0.735-0.189,1.053
		c-0.127,0.317-0.32,0.589-0.582,0.813c-0.261,0.225-0.589,0.398-0.985,0.521s-0.863,0.184-1.402,0.184h-3.183v3.88h-1.273
		L110.287,14.48L110.287,14.48z M114.425,18.435c0.743,0,1.283-0.128,1.622-0.385c0.339-0.258,0.508-0.651,0.508-1.182
		c0-0.237-0.037-0.442-0.11-0.619c-0.074-0.175-0.198-0.32-0.373-0.435c-0.175-0.114-0.407-0.198-0.691-0.25
		c-0.286-0.053-0.637-0.08-1.053-0.08h-2.767v2.951H114.425z"/><path d="M120.3,18.898c0-0.351,0.037-0.709,0.111-1.077c0.073-0.367,0.191-0.722,0.355-1.065
		c0.163-0.343,0.373-0.667,0.63-0.973c0.257-0.306,0.57-0.573,0.936-0.802c0.368-0.228,0.794-0.408,1.28-0.539
		c0.485-0.13,1.038-0.196,1.659-0.196c0.62,0,1.173,0.066,1.659,0.196c0.485,0.131,0.912,0.311,1.279,0.539
		c0.367,0.229,0.68,0.496,0.937,0.802c0.257,0.306,0.467,0.63,0.63,0.973c0.163,0.343,0.281,0.698,0.355,1.065
		c0.074,0.368,0.11,0.726,0.11,1.077c0,0.53-0.086,1.069-0.257,1.616c-0.172,0.547-0.451,1.047-0.839,1.5
		c-0.387,0.453-0.897,0.822-1.53,1.108c-0.633,0.285-1.414,0.428-2.344,0.428s-1.712-0.143-2.344-0.428
		c-0.632-0.286-1.143-0.655-1.53-1.108c-0.387-0.453-0.667-0.953-0.838-1.5C120.386,19.968,120.3,19.43,120.3,18.898z
		 M121.647,18.898c0,0.547,0.087,1.045,0.263,1.493c0.175,0.449,0.422,0.833,0.74,1.151s0.7,0.565,1.145,0.74
		c0.444,0.175,0.937,0.264,1.475,0.264s1.03-0.088,1.475-0.264c0.445-0.175,0.826-0.422,1.144-0.74
		c0.318-0.318,0.565-0.703,0.741-1.151c0.175-0.448,0.263-0.946,0.263-1.493c0-0.546-0.088-1.044-0.263-1.493
		c-0.176-0.449-0.422-0.833-0.741-1.151c-0.318-0.318-0.699-0.565-1.144-0.74c-0.445-0.175-0.937-0.264-1.475-0.264
		s-1.031,0.088-1.475,0.264c-0.445,0.175-0.827,0.422-1.145,0.74c-0.318,0.318-0.565,0.702-0.74,1.151
		C121.735,17.854,121.647,18.353,121.647,18.898z"/><path d="M145.675,14.48h1.346l-3.072,8.837h-1.763l-2.705-7.761h-0.024l-2.705,7.761h-1.763l-3.072-8.837h1.346
		l2.607,7.76h0.024l2.718-7.76h1.713l2.717,7.76h0.024L145.675,14.48z"/><path d="M149.103,14.48h6.61v1.003h-5.337v2.791h4.994v1.004h-4.994v3.036h5.484v1.004h-6.757V14.48L149.103,14.48z
		"/><path d="M159.898,23.317h-1.271V14.48h4.346c0.687,0,1.244,0.055,1.677,0.165c0.433,0.11,0.771,0.267,1.017,0.471
		c0.245,0.204,0.414,0.451,0.508,0.741c0.095,0.29,0.142,0.61,0.142,0.96c0,0.539-0.183,0.994-0.543,1.365
		c-0.362,0.372-0.854,0.602-1.477,0.691v0.024c0.293,0.041,0.537,0.103,0.732,0.184s0.359,0.204,0.488,0.367
		c0.131,0.163,0.234,0.371,0.313,0.625c0.078,0.252,0.146,0.567,0.202,0.942c0.071,0.473,0.146,0.904,0.214,1.292
		c0.068,0.388,0.166,0.724,0.289,1.01h-1.35c-0.058-0.155-0.108-0.345-0.158-0.569c-0.049-0.225-0.098-0.465-0.141-0.722
		c-0.046-0.257-0.094-0.521-0.144-0.79s-0.103-0.527-0.158-0.771c-0.041-0.155-0.101-0.3-0.178-0.435
		c-0.078-0.134-0.199-0.251-0.367-0.349c-0.168-0.098-0.386-0.173-0.653-0.227c-0.271-0.053-0.612-0.08-1.03-0.08H159.9v3.943
		H159.898z M159.898,18.373h2.902c0.334,0,0.638-0.022,0.905-0.067c0.271-0.045,0.497-0.123,0.686-0.232
		c0.188-0.11,0.332-0.258,0.43-0.441c0.099-0.184,0.146-0.418,0.146-0.704c0-0.539-0.164-0.914-0.488-1.126
		c-0.326-0.211-0.877-0.318-1.65-0.318H159.9v2.888H159.898z"/><path d="M169.35,14.48h6.609v1.003h-5.336v2.791h4.993v1.004h-4.993v3.036h5.482v1.004h-6.756V14.48L169.35,14.48z"/><path d="M178.945,14.48h3.439c0.979,0,1.807,0.1,2.479,0.299c0.673,0.2,1.215,0.494,1.627,0.881
		c0.411,0.388,0.709,0.863,0.889,1.426c0.181,0.563,0.271,1.204,0.271,1.922c0,1.363-0.42,2.421-1.256,3.176
		s-2.109,1.132-3.824,1.132h-3.622L178.945,14.48L178.945,14.48z M180.219,22.313h2.4c0.727,0,1.326-0.097,1.805-0.293
		s0.855-0.453,1.133-0.771c0.278-0.318,0.473-0.681,0.582-1.09c0.109-0.408,0.164-0.828,0.164-1.261
		c0-0.571-0.068-1.071-0.207-1.499c-0.141-0.429-0.365-0.784-0.681-1.065c-0.313-0.281-0.724-0.494-1.229-0.637
		c-0.506-0.142-1.131-0.214-1.873-0.214h-2.094V22.313L180.219,22.313z"/><path d="M195.495,14.48h4.175c0.604,0,1.117,0.044,1.542,0.134c0.425,0.09,0.769,0.227,1.034,0.41
		c0.266,0.184,0.459,0.417,0.581,0.698c0.122,0.281,0.185,0.61,0.185,0.985c0,0.564-0.152,1.002-0.453,1.316
		c-0.303,0.314-0.735,0.528-1.311,0.643v0.037c0.352,0.042,0.659,0.126,0.924,0.257c0.266,0.131,0.484,0.294,0.655,0.49
		c0.172,0.196,0.3,0.415,0.386,0.655c0.086,0.241,0.129,0.491,0.129,0.752c0,0.335-0.063,0.649-0.188,0.943
		c-0.129,0.293-0.325,0.555-0.596,0.783c-0.271,0.229-0.617,0.408-1.048,0.539c-0.428,0.13-0.938,0.195-1.534,0.195h-4.479
		L195.495,14.48L195.495,14.48z M196.768,18.202h3.256c0.539,0,0.961-0.106,1.265-0.318c0.303-0.212,0.453-0.555,0.453-1.028
		c0-0.205-0.03-0.39-0.095-0.557c-0.062-0.167-0.172-0.312-0.33-0.435c-0.157-0.122-0.377-0.216-0.653-0.282
		c-0.276-0.065-0.633-0.098-1.063-0.098h-2.828v2.718H196.768z M196.768,22.313h3.049c0.435,0,0.789-0.038,1.07-0.116
		c0.281-0.077,0.504-0.188,0.668-0.324c0.164-0.139,0.277-0.302,0.342-0.49c0.066-0.188,0.102-0.388,0.102-0.6
		c0-0.514-0.182-0.906-0.538-1.175s-0.933-0.404-1.715-0.404h-2.978V22.313z"/><path d="M209.242,23.317v-3.684l-4.199-5.153h1.641l3.195,4.1l3.194-4.1h1.64l-4.197,5.153v3.684H209.242z"/></g><path d="M246.641,143.75c0,1.189-0.8,2.16-1.772,2.16H80.135c-0.976,0-1.775-0.971-1.775-2.16v-30.741
		c0-1.188,0.801-2.159,1.775-2.159h164.73c0.976,0,1.775,0.975,1.775,2.159V143.75L246.641,143.75z" style="fill:#8cc63f"/><g style="fill:#fff"><path d="M100.309,131.04c0.011,0.221,0.041,0.474,0.086,0.759c0.046,0.285,0.168,0.555,0.361,0.813
			c0.192,0.257,0.495,0.476,0.905,0.652c0.408,0.182,0.977,0.271,1.704,0.271c0.655,0,1.18-0.088,1.571-0.264
			c0.393-0.179,0.691-0.389,0.896-0.631c0.206-0.248,0.339-0.496,0.403-0.746c0.065-0.252,0.099-0.459,0.099-0.623
			c0-0.354-0.068-0.643-0.203-0.869c-0.134-0.229-0.331-0.418-0.588-0.569s-0.564-0.279-0.921-0.386
			c-0.358-0.105-0.759-0.211-1.204-0.315c-0.48-0.118-0.9-0.223-1.256-0.315c-0.356-0.094-0.671-0.182-0.939-0.264
			c-0.271-0.08-0.504-0.166-0.704-0.254c-0.199-0.087-0.381-0.186-0.545-0.29c-0.515-0.35-0.863-0.748-1.045-1.192
			c-0.182-0.442-0.271-0.875-0.271-1.299c0-0.643,0.14-1.197,0.422-1.666c0.281-0.468,0.646-0.85,1.098-1.146
			c0.451-0.299,0.966-0.521,1.546-0.667c0.579-0.146,1.168-0.221,1.767-0.221c0.21,0,0.468,0.012,0.771,0.035
			c0.304,0.021,0.621,0.078,0.949,0.166s0.652,0.213,0.976,0.379c0.321,0.162,0.611,0.386,0.869,0.666
			c0.175,0.198,0.313,0.397,0.413,0.599c0.099,0.198,0.176,0.394,0.228,0.58c0.054,0.188,0.086,0.364,0.098,0.534
			c0.011,0.172,0.021,0.32,0.036,0.447h-1.827c-0.024-0.396-0.118-0.724-0.282-0.976s-0.372-0.448-0.624-0.589
			s-0.531-0.236-0.835-0.289c-0.305-0.055-0.615-0.08-0.931-0.08c-0.878,0-1.567,0.186-2.064,0.557
			c-0.499,0.366-0.747,0.866-0.747,1.5c0,0.28,0.047,0.521,0.141,0.721c0.095,0.201,0.235,0.369,0.423,0.511
			c0.187,0.141,0.424,0.262,0.711,0.358c0.286,0.103,0.624,0.195,1.01,0.291c0.75,0.197,1.354,0.356,1.812,0.476
			c0.455,0.114,0.82,0.22,1.098,0.308c0.273,0.09,0.493,0.174,0.659,0.256c0.163,0.082,0.339,0.184,0.525,0.299
			c0.293,0.199,0.524,0.416,0.694,0.648c0.171,0.234,0.295,0.469,0.378,0.704c0.083,0.231,0.134,0.455,0.159,0.666
			c0.022,0.212,0.035,0.381,0.035,0.51c0,0.563-0.108,1.083-0.325,1.564c-0.217,0.479-0.537,0.896-0.957,1.255
			c-0.423,0.355-0.946,0.636-1.572,0.835c-0.627,0.198-1.344,0.298-2.151,0.298c-0.247,0-0.542-0.014-0.889-0.044
			c-0.346-0.028-0.704-0.095-1.071-0.19c-0.369-0.102-0.729-0.246-1.08-0.438c-0.352-0.195-0.649-0.449-0.896-0.766
			c-0.176-0.234-0.313-0.474-0.413-0.713c-0.099-0.237-0.172-0.474-0.22-0.692c-0.047-0.224-0.076-0.435-0.088-0.634
			c-0.011-0.197-0.018-0.373-0.018-0.525h1.825V131.04L100.309,131.04z"/><path d="M111.639,122.063h1.757v12.688h-1.757V122.063L111.639,122.063z"/><path d="M125.991,125.225c-0.095-0.597-0.377-1.076-0.853-1.438c-0.474-0.363-1.145-0.545-2.011-0.545
			c-0.6,0-1.141,0.084-1.626,0.255c-0.485,0.17-0.898,0.44-1.239,0.815c-0.28,0.306-0.51,0.633-0.685,0.981
			c-0.176,0.354-0.313,0.706-0.413,1.063s-0.166,0.713-0.201,1.063c-0.035,0.354-0.054,0.675-0.054,0.969
			c0,0.271,0.019,0.576,0.054,0.922c0.035,0.348,0.095,0.698,0.184,1.063c0.087,0.361,0.204,0.718,0.351,1.063
			c0.146,0.348,0.337,0.658,0.571,0.938c0.212,0.233,0.444,0.435,0.702,0.599c0.257,0.164,0.531,0.293,0.817,0.387
			c0.288,0.095,0.59,0.162,0.905,0.201c0.315,0.043,0.633,0.063,0.948,0.063c0.726,0,1.317-0.052,1.774-0.157
			s0.785-0.188,0.984-0.246v-3.761h-2.898V128h4.655v6.255c-0.188,0.058-0.424,0.131-0.712,0.22
			c-0.286,0.088-0.623,0.172-1.01,0.256c-0.388,0.082-0.813,0.15-1.281,0.209c-0.47,0.063-0.974,0.092-1.512,0.092
			c-1.172,0-2.12-0.15-2.846-0.448c-0.727-0.3-1.312-0.677-1.758-1.133c-0.632-0.636-1.086-1.37-1.361-2.216
			c-0.274-0.844-0.412-1.715-0.412-2.616c0-0.315,0.029-0.726,0.087-1.224c0.061-0.496,0.183-1.021,0.369-1.582
			c0.188-0.556,0.463-1.103,0.827-1.643c0.363-0.538,0.843-1.011,1.439-1.423c0.316-0.21,0.646-0.374,0.993-0.49
			c0.346-0.116,0.679-0.209,1.001-0.272c0.322-0.063,0.617-0.104,0.886-0.112c0.27-0.013,0.487-0.019,0.65-0.019
			c0.247,0,0.523,0.013,0.834,0.035c0.31,0.022,0.63,0.082,0.957,0.174c0.328,0.097,0.659,0.232,0.992,0.414
			c0.334,0.185,0.653,0.424,0.958,0.729c0.188,0.198,0.337,0.394,0.449,0.58c0.111,0.188,0.192,0.369,0.245,0.545
			c0.053,0.175,0.088,0.339,0.104,0.491c0.019,0.15,0.031,0.287,0.043,0.402H125.991L125.991,125.225z"/><path d="M132.07,122.063h2.44l6.237,10.488v-10.488h1.617v12.688h-2.25l-6.447-10.771v10.771h-1.599
			L132.07,122.063L132.07,122.063z"/><path d="M154.099,122.063v7.854c0,0.338,0.019,0.631,0.053,0.878c0.035,0.245,0.08,0.455,0.132,0.632
			c0.053,0.177,0.11,0.325,0.176,0.447c0.064,0.124,0.131,0.231,0.202,0.325c0.198,0.271,0.421,0.482,0.668,0.642
			c0.245,0.157,0.497,0.283,0.755,0.377c0.257,0.095,0.512,0.156,0.764,0.185c0.25,0.029,0.489,0.048,0.711,0.048
			c0.854,0,1.513-0.146,1.977-0.435c0.463-0.285,0.802-0.629,1.019-1.024c0.217-0.398,0.342-0.798,0.377-1.193
			s0.054-0.716,0.054-0.946v-7.783h1.704v7.815c0,0.177-0.007,0.392-0.018,0.642c-0.012,0.254-0.05,0.527-0.114,0.828
			c-0.064,0.297-0.168,0.609-0.308,0.938c-0.142,0.328-0.34,0.646-0.599,0.965c-0.314,0.391-0.66,0.697-1.034,0.934
			c-0.378,0.232-0.754,0.414-1.135,0.535c-0.381,0.125-0.742,0.201-1.08,0.236c-0.339,0.035-0.621,0.055-0.843,0.055
			c-0.305,0-0.653-0.027-1.046-0.08c-0.392-0.055-0.792-0.15-1.203-0.299c-0.409-0.146-0.811-0.354-1.204-0.613
			c-0.392-0.266-0.733-0.605-1.026-1.027c-0.094-0.141-0.185-0.296-0.271-0.467c-0.089-0.17-0.168-0.377-0.238-0.623
			s-0.125-0.539-0.166-0.879c-0.042-0.338-0.063-0.748-0.063-1.229v-7.729h1.758V122.063L154.099,122.063z"/><path d="M166.801,122.063h4.251c0.386,0,0.744,0.013,1.071,0.026c0.328,0.019,0.633,0.063,0.914,0.134
			c0.281,0.069,0.545,0.172,0.79,0.305c0.245,0.139,0.475,0.32,0.685,0.558c0.316,0.328,0.551,0.7,0.703,1.115
			c0.153,0.416,0.229,0.862,0.229,1.345c0,0.98-0.332,1.811-1,2.479c-0.164,0.162-0.35,0.313-0.555,0.445
			c-0.205,0.137-0.455,0.249-0.756,0.342c-0.298,0.098-0.648,0.168-1.053,0.222c-0.404,0.055-0.895,0.079-1.469,0.079h-2.055v5.641
			H166.8L166.801,122.063L166.801,122.063z M168.557,127.632h2.092c0.293,0,0.607-0.014,0.949-0.044
			c0.34-0.029,0.654-0.113,0.947-0.255s0.538-0.356,0.738-0.649c0.197-0.293,0.299-0.697,0.299-1.211
			c0-0.492-0.092-0.873-0.271-1.143c-0.184-0.271-0.404-0.466-0.67-0.59c-0.262-0.123-0.543-0.196-0.842-0.219
			c-0.299-0.023-0.561-0.035-0.781-0.035h-2.461V127.632z"/><path d="M184.297,122.063h7.555v1.515h-5.764v3.937h5.43v1.477h-5.43v5.763h-1.791V122.063z"/><path d="M194.786,122.063h4.532c0.162,0,0.363,0.006,0.596,0.013c0.234,0.006,0.486,0.022,0.756,0.062
			c0.27,0.035,0.539,0.096,0.809,0.178c0.271,0.082,0.521,0.196,0.756,0.351c0.48,0.305,0.834,0.683,1.063,1.132
			c0.229,0.45,0.343,0.934,0.343,1.447c0,0.443-0.078,0.859-0.236,1.246c-0.158,0.386-0.379,0.719-0.658,1
			c-0.271,0.27-0.535,0.459-0.801,0.57c-0.264,0.108-0.492,0.192-0.691,0.254c0.307,0.082,0.564,0.183,0.791,0.299
			c0.225,0.117,0.409,0.269,0.563,0.449c0.15,0.183,0.272,0.407,0.369,0.687c0.094,0.274,0.162,0.612,0.211,1.011
			c0.047,0.376,0.09,0.727,0.131,1.055c0.039,0.33,0.093,0.651,0.147,0.971c0.06,0.314,0.127,0.637,0.203,0.959
			c0.076,0.32,0.181,0.656,0.308,1.012h-1.879c-0.07-0.212-0.137-0.46-0.192-0.747c-0.06-0.286-0.11-0.581-0.158-0.888
			c-0.046-0.307-0.087-0.604-0.122-0.904c-0.035-0.299-0.068-0.568-0.104-0.814c-0.062-0.457-0.138-0.838-0.229-1.144
			c-0.097-0.305-0.241-0.548-0.438-0.729c-0.196-0.182-0.465-0.312-0.806-0.389c-0.339-0.074-0.771-0.111-1.296-0.111h-2.203v5.729
			h-1.757V122.07h-0.005L194.786,122.063L194.786,122.063z M196.508,127.51h2.766c0.047,0,0.138,0,0.265,0
			c0.142,0,0.295-0.01,0.465-0.027c0.169-0.017,0.338-0.045,0.508-0.086c0.169-0.041,0.313-0.099,0.431-0.166
			c0.059-0.035,0.138-0.092,0.233-0.168c0.103-0.076,0.197-0.181,0.29-0.313c0.096-0.133,0.174-0.294,0.234-0.479
			c0.064-0.188,0.099-0.414,0.099-0.686c0-0.512-0.103-0.904-0.298-1.181c-0.199-0.274-0.436-0.478-0.7-0.604
			c-0.271-0.129-0.547-0.203-0.832-0.228c-0.284-0.024-0.517-0.035-0.688-0.035h-2.769L196.508,127.51L196.508,127.51z"/><path d="M207.205,122.063h7.959v1.515h-6.202v3.937h5.903v1.477h-5.903v4.218h6.343v1.545h-8.1V122.063z"/><path d="M218.816,122.063h7.959v1.515h-6.201v3.937h5.902v1.477h-5.902v4.218h6.342v1.545h-8.1V122.063
			L218.816,122.063z"/></g><g style="fill:#0072BC"><path d="M 89.146 60.494 85.5 60.592 85.5 58.072 89.149 58.082"/><path d="M 89.146 65.961 85.5 66.232 85.513 63.385 89.146 63.256"/><path d="M 108.287 50.435 108.304 47.265 85.5 45.255 85.5 48.921"/><path d="M 108.287 52.762 V 55.733 L 90.513 55.349 V 51.963"/><path d="M 108.292 58.105 V 60.278 L 90.52 60.539 L 90.513 58.072"/><path d="M 108.279 62.594 108.269 64.919 90.52 65.84 90.507 63.218"/></g><path d="M 108.292 69.986 101.842 70.615 101.839 67.977 108.304 67.481" style="fill:#43a455"/><g style="fill:#0072BC"><path d="M115.674,53.862v-3.337h2.967v-2.633c0-3.3,1.891-5.006,5.563-5.006c0.667,0,1.298,0.074,1.928,0.26v3.336
			c-0.296-0.036-0.63-0.072-1.001-0.072c-2.188,0-2.485,0.815-2.485,2.818v1.297h3.227v3.337h-3.227V69.4h-4.005V53.862H115.674z"/><path d="M126.355,59.944c0-6.008,3.634-9.94,8.863-9.94c5.229,0,8.864,3.895,8.864,9.94
			c0,6.007-3.635,9.975-8.864,9.975C129.99,69.919,126.355,65.989,126.355,59.944z M135.218,66.063c2.782,0,4.673-2.337,4.673-6.118
			c0-3.82-1.891-6.12-4.673-6.12c-2.781,0-4.672,2.373-4.672,6.12C130.545,63.726,132.438,66.063,135.218,66.063z"/><path d="M146.704,50.525h4.042v2.743c1.261-2.15,2.929-3.153,5.191-3.153c0.26,0,0.482,0,0.742,0.038v4.525
			c-0.259-0.038-0.518-0.038-0.778-0.038c-3.189,0-5.155,1.743-5.155,4.451V69.4h-4.042V50.525z"/><path d="M158.601,50.525h4.004v1.78c1.372-1.41,3.005-2.114,4.858-2.114c2.227,0,4.004,0.965,5.045,2.743
			c1.631-1.816,3.596-2.743,5.748-2.743c3.598,0,5.932,2.411,5.932,6.602V69.4h-4.004V57.534c0-2.448-1.002-3.709-2.93-3.709
			c-2.115,0-3.896,1.781-3.896,4.375v11.2h-3.893V57.534c0-2.448-1-3.709-2.93-3.709c-2.113,0-3.932,1.781-3.932,4.375v11.2h-4.003
			V50.525z"/><path d="M189.381,63.875c1.742,1.742,3.188,2.299,5.377,2.299c2.299,0,3.707-1.038,3.707-2.411
			c0-1.744-1.482-1.854-4.707-2.335c-4.305-0.632-6.713-1.782-6.713-5.342c0-3.338,2.967-6.007,7.75-6.007
			c2.893,0,5.154,0.852,7.268,2.854l-2.41,2.597c-1.408-1.261-3.15-1.966-4.969-1.966c-2.301,0-3.561,0.817-3.561,2.042
			c0,1.853,2.336,1.667,6.193,2.409c3.561,0.668,5.303,2.373,5.303,5.378c0,3.708-3.078,6.453-7.824,6.453
			c-3.635,0-6.453-1.075-8.492-3.338L189.381,63.875z"/><path d="M205.486,43.218h4.043v4.525h-4.043V43.218z M205.486,50.525h4.043V69.4h-4.043V50.525z"/><path d="M220.568,66.025c0.369,0,0.74-0.036,1.039-0.074V69.4c-0.705,0.187-1.408,0.26-2.08,0.26
			c-4.893,0-5.447-2.077-5.447-6.194v-9.604h-2.969v-3.337h2.969v-6.564h4.041v6.564h3.486v3.337h-3.486v9.344
			C218.121,65.209,218.381,66.025,220.568,66.025z"/><path d="M231.229,69.883c-5.266,0-9.084-3.932-9.084-10.125c0-5.748,3.709-9.754,8.566-9.754
			c5.117,0,8.789,4.081,8.789,10.941v0.223h-13.018c0.295,3.003,2.334,4.821,5.008,4.821c1.777,0,3.521-1.002,4.561-2.782
			l3.338,1.892C237.313,68.25,234.566,69.883,231.229,69.883z M234.828,57.683c-0.223-2.375-1.967-4.043-4.043-4.043
			c-2.039,0-3.932,1.595-4.301,4.043H234.828z"/><g style="enable-background:new    "><path d="M17.793,78.744h4.033c1.895,0,3.265,0.283,4.111,0.85s1.27,1.462,1.27,2.686
		c0,0.847-0.236,1.545-0.708,2.095s-1.161,0.906-2.065,1.069v0.098c2.168,0.371,3.252,1.511,3.252,3.418
		c0,1.276-0.431,2.272-1.294,2.988s-2.069,1.074-3.618,1.074h-4.98V78.744z M19.453,84.857h2.734c1.172,0,2.015-0.184,2.529-0.552
		s0.771-0.988,0.771-1.86c0-0.801-0.287-1.379-0.859-1.733s-1.484-0.532-2.734-0.532h-2.441V84.857z M19.453,86.264v5.342h2.979
		c1.152,0,2.02-0.223,2.603-0.669s0.874-1.145,0.874-2.095c0-0.886-0.298-1.536-0.894-1.953s-1.502-0.625-2.72-0.625H19.453z"/><path d="M32.031,82.318v6.943c0,0.872,0.199,1.523,0.596,1.953s1.019,0.645,1.865,0.645
		c1.12,0,1.938-0.306,2.456-0.918s0.776-1.611,0.776-2.998v-5.625h1.621v10.703h-1.338l-0.234-1.436h-0.088
		c-0.332,0.527-0.792,0.931-1.382,1.211s-1.261,0.42-2.017,0.42c-1.302,0-2.277-0.31-2.925-0.928s-0.972-1.608-0.972-2.969v-7.002
		H32.031z"/><path d="M42.646,79.418c0-0.371,0.091-0.643,0.273-0.815s0.41-0.259,0.684-0.259c0.26,0,0.485,0.088,0.674,0.264
		s0.283,0.446,0.283,0.811s-0.094,0.637-0.283,0.815s-0.414,0.269-0.674,0.269c-0.273,0-0.501-0.09-0.684-0.269
		S42.646,79.782,42.646,79.418z M44.404,93.021h-1.621V82.318h1.621V93.021z"/><path d="M49.463,93.021h-1.621V77.826h1.621V93.021z"/><path d="M60.186,91.586h-0.088c-0.749,1.087-1.869,1.631-3.359,1.631c-1.4,0-2.489-0.479-3.267-1.436
		s-1.167-2.317-1.167-4.082s0.391-3.135,1.172-4.111s1.869-1.465,3.262-1.465c1.452,0,2.565,0.527,3.34,1.582h0.127l-0.068-0.771
		l-0.039-0.752v-4.355h1.621v15.195H60.4L60.186,91.586z M56.943,91.859c1.107,0,1.909-0.301,2.407-0.903s0.747-1.574,0.747-2.915
		v-0.342c0-1.517-0.252-2.6-0.757-3.247s-1.31-0.972-2.417-0.972c-0.951,0-1.678,0.369-2.183,1.108s-0.757,1.782-0.757,3.13
		c0,1.367,0.25,2.399,0.752,3.096S55.973,91.859,56.943,91.859z"/><path d="M79.59,87.66c0,1.745-0.439,3.107-1.318,4.087s-2.093,1.47-3.643,1.47c-0.957,0-1.807-0.225-2.549-0.674
		s-1.315-1.094-1.719-1.934s-0.605-1.823-0.605-2.949c0-1.745,0.436-3.104,1.309-4.077s2.083-1.46,3.633-1.46
		c1.498,0,2.687,0.498,3.569,1.494S79.59,85.961,79.59,87.66z M71.436,87.66c0,1.367,0.273,2.409,0.82,3.125
		s1.351,1.074,2.412,1.074s1.867-0.356,2.417-1.069s0.825-1.756,0.825-3.13c0-1.36-0.275-2.395-0.825-3.101s-1.362-1.06-2.437-1.06
		c-1.061,0-1.862,0.349-2.402,1.045S71.436,86.28,71.436,87.66z"/><path d="M89.756,93.021v-6.924c0-0.872-0.199-1.523-0.596-1.953S88.141,83.5,87.295,83.5
		c-1.12,0-1.94,0.303-2.461,0.908s-0.781,1.604-0.781,2.998v5.615h-1.621V82.318h1.318l0.264,1.465h0.078
		c0.332-0.527,0.797-0.936,1.396-1.226s1.266-0.435,2.002-0.435c1.289,0,2.259,0.311,2.91,0.933s0.977,1.616,0.977,2.983v6.982
		H89.756z"/><path d="M96.328,93.021h-1.621V77.826h1.621V93.021z"/><path d="M99.629,79.418c0-0.371,0.091-0.643,0.273-0.815s0.41-0.259,0.684-0.259c0.26,0,0.485,0.088,0.674,0.264
		s0.283,0.446,0.283,0.811s-0.094,0.637-0.283,0.815s-0.414,0.269-0.674,0.269c-0.273,0-0.501-0.09-0.684-0.269
		S99.629,79.782,99.629,79.418z M101.387,93.021h-1.621V82.318h1.621V93.021z"/><path d="M112.148,93.021v-6.924c0-0.872-0.199-1.523-0.596-1.953s-1.019-0.645-1.865-0.645
		c-1.12,0-1.94,0.303-2.461,0.908s-0.781,1.604-0.781,2.998v5.615h-1.621V82.318h1.318l0.264,1.465h0.078
		c0.332-0.527,0.797-0.936,1.396-1.226s1.266-0.435,2.002-0.435c1.289,0,2.259,0.311,2.91,0.933s0.977,1.616,0.977,2.983v6.982
		H112.148z"/><path d="M121.621,93.217c-1.582,0-2.831-0.481-3.745-1.445s-1.372-2.302-1.372-4.014
		c0-1.726,0.425-3.096,1.274-4.111s1.991-1.523,3.423-1.523c1.341,0,2.402,0.441,3.184,1.323s1.172,2.046,1.172,3.491v1.025h-7.373
		c0.033,1.257,0.35,2.21,0.952,2.861s1.45,0.977,2.544,0.977c1.152,0,2.292-0.241,3.418-0.723v1.445
		c-0.573,0.247-1.115,0.425-1.626,0.532S122.344,93.217,121.621,93.217z M121.182,83.48c-0.859,0-1.544,0.28-2.056,0.84
		s-0.812,1.335-0.903,2.324h5.596c0-1.022-0.228-1.805-0.684-2.349S122.028,83.48,121.182,83.48z"/><path d="M138.34,83.578h-2.725v9.443h-1.621v-9.443h-1.914v-0.732l1.914-0.586v-0.596
		c0-2.63,1.149-3.945,3.447-3.945c0.566,0,1.23,0.114,1.992,0.342l-0.42,1.299c-0.625-0.202-1.159-0.303-1.602-0.303
		c-0.612,0-1.064,0.203-1.357,0.61s-0.439,1.06-0.439,1.958v0.693h2.725V83.578z"/><path d="M149.531,87.66c0,1.745-0.439,3.107-1.318,4.087s-2.093,1.47-3.643,1.47c-0.957,0-1.807-0.225-2.549-0.674
		s-1.315-1.094-1.719-1.934s-0.605-1.823-0.605-2.949c0-1.745,0.436-3.104,1.309-4.077s2.083-1.46,3.633-1.46
		c1.498,0,2.687,0.498,3.569,1.494S149.531,85.961,149.531,87.66z M141.377,87.66c0,1.367,0.273,2.409,0.82,3.125
		s1.351,1.074,2.412,1.074s1.867-0.356,2.417-1.069s0.825-1.756,0.825-3.13c0-1.36-0.275-2.395-0.825-3.101s-1.362-1.06-2.437-1.06
		c-1.061,0-1.862,0.349-2.402,1.045S141.377,86.28,141.377,87.66z"/><path d="M157.256,82.123c0.475,0,0.902,0.039,1.279,0.117l-0.225,1.504c-0.443-0.098-0.833-0.146-1.172-0.146
		c-0.866,0-1.606,0.352-2.222,1.055s-0.923,1.579-0.923,2.627v5.742h-1.621V82.318h1.338l0.186,1.982h0.078
		c0.397-0.696,0.875-1.233,1.436-1.611S156.585,82.123,157.256,82.123z"/><path d="M174.18,93.021v-6.963c0-0.853-0.182-1.492-0.547-1.919s-0.932-0.64-1.699-0.64
		c-1.01,0-1.754,0.29-2.236,0.869s-0.723,1.472-0.723,2.676v5.977h-1.621v-6.963c0-0.853-0.182-1.492-0.547-1.919
		s-0.934-0.64-1.709-0.64c-1.016,0-1.76,0.305-2.231,0.913c-0.472,0.608-0.708,1.606-0.708,2.993v5.615h-1.621V82.318h1.318
		l0.264,1.465h0.078c0.306-0.521,0.737-0.928,1.294-1.221s1.181-0.439,1.87-0.439c1.674,0,2.768,0.605,3.281,1.816h0.078
		c0.318-0.56,0.781-1.003,1.387-1.328s1.295-0.488,2.07-0.488c1.211,0,2.117,0.311,2.72,0.933s0.903,1.616,0.903,2.983v6.982H174.18
		z"/><path d="M186.045,90.102c0,0.996-0.371,1.765-1.113,2.305s-1.783,0.811-3.125,0.811c-1.42,0-2.525-0.225-3.32-0.674
		v-1.504c0.514,0.261,1.066,0.466,1.655,0.615s1.157,0.225,1.704,0.225c0.846,0,1.498-0.135,1.953-0.405s0.684-0.682,0.684-1.235
		c0-0.417-0.181-0.773-0.542-1.069s-1.065-0.646-2.114-1.05c-0.996-0.371-1.704-0.695-2.124-0.972s-0.732-0.591-0.938-0.942
		s-0.308-0.771-0.308-1.26c0-0.872,0.355-1.561,1.064-2.065s1.684-0.757,2.92-0.757c1.152,0,2.279,0.234,3.379,0.703l-0.576,1.318
		c-1.074-0.442-2.047-0.664-2.92-0.664c-0.768,0-1.348,0.12-1.738,0.361S180,84.415,180,84.838c0,0.286,0.073,0.53,0.22,0.732
		s0.382,0.394,0.708,0.576s0.951,0.446,1.875,0.791c1.27,0.462,2.127,0.928,2.573,1.396S186.045,89.392,186.045,90.102z"/><path d="M200.459,93.021l-0.322-1.523h-0.078c-0.533,0.671-1.066,1.125-1.597,1.362s-1.192,0.356-1.987,0.356
		c-1.061,0-1.893-0.273-2.495-0.82s-0.903-1.325-0.903-2.334c0-2.161,1.729-3.294,5.186-3.398l1.816-0.059v-0.664
		c0-0.84-0.181-1.46-0.542-1.86s-0.938-0.601-1.733-0.601c-0.893,0-1.9,0.273-3.027,0.82l-0.498-1.24
		c0.527-0.286,1.105-0.511,1.733-0.674s1.259-0.244,1.89-0.244c1.275,0,2.222,0.283,2.837,0.85s0.923,1.475,0.923,2.725v7.305
		H200.459z M196.797,91.879c1.01,0,1.802-0.276,2.378-0.83s0.864-1.328,0.864-2.324v-0.967l-1.621,0.068
		c-1.289,0.046-2.219,0.246-2.788,0.601s-0.854,0.906-0.854,1.655c0,0.586,0.178,1.032,0.532,1.338S196.158,91.879,196.797,91.879z"/><path d="M212.324,93.021v-6.924c0-0.872-0.199-1.523-0.596-1.953s-1.02-0.645-1.865-0.645
		c-1.119,0-1.939,0.303-2.461,0.908s-0.781,1.604-0.781,2.998v5.615H205V82.318h1.318l0.264,1.465h0.078
		c0.332-0.527,0.797-0.936,1.396-1.226s1.266-0.435,2.002-0.435c1.289,0,2.26,0.311,2.91,0.933s0.977,1.616,0.977,2.983v6.982
		H212.324z"/><path d="M224.561,91.586h-0.088c-0.748,1.087-1.869,1.631-3.359,1.631c-1.4,0-2.488-0.479-3.267-1.436
		s-1.167-2.317-1.167-4.082s0.391-3.135,1.172-4.111s1.869-1.465,3.262-1.465c1.451,0,2.564,0.527,3.34,1.582h0.127l-0.068-0.771
		l-0.039-0.752v-4.355h1.621v15.195h-1.318L224.561,91.586z M221.318,91.859c1.107,0,1.909-0.301,2.407-0.903
		s0.747-1.574,0.747-2.915v-0.342c0-1.517-0.252-2.6-0.757-3.247s-1.31-0.972-2.417-0.972c-0.951,0-1.678,0.369-2.183,1.108
		s-0.757,1.782-0.757,3.13c0,1.367,0.25,2.399,0.752,3.096S220.348,91.859,221.318,91.859z"/><path d="M241.631,90.102c0,0.996-0.371,1.765-1.113,2.305s-1.783,0.811-3.125,0.811c-1.42,0-2.525-0.225-3.32-0.674
		v-1.504c0.514,0.261,1.066,0.466,1.655,0.615s1.157,0.225,1.704,0.225c0.846,0,1.498-0.135,1.953-0.405s0.684-0.682,0.684-1.235
		c0-0.417-0.181-0.773-0.542-1.069s-1.065-0.646-2.114-1.05c-0.996-0.371-1.704-0.695-2.124-0.972s-0.732-0.591-0.938-0.942
		s-0.308-0.771-0.308-1.26c0-0.872,0.355-1.561,1.064-2.065s1.684-0.757,2.92-0.757c1.152,0,2.279,0.234,3.379,0.703l-0.576,1.318
		c-1.074-0.442-2.047-0.664-2.92-0.664c-0.768,0-1.348,0.12-1.738,0.361s-0.586,0.573-0.586,0.996c0,0.286,0.073,0.53,0.22,0.732
		s0.382,0.394,0.708,0.576s0.951,0.446,1.875,0.791c1.27,0.462,2.127,0.928,2.573,1.396S241.631,89.392,241.631,90.102z"/><path d="M245.791,82.318v6.943c0,0.872,0.199,1.523,0.596,1.953s1.02,0.645,1.865,0.645
		c1.119,0,1.938-0.306,2.456-0.918s0.776-1.611,0.776-2.998v-5.625h1.621v10.703h-1.338l-0.234-1.436h-0.088
		c-0.332,0.527-0.793,0.931-1.382,1.211s-1.261,0.42-2.017,0.42c-1.303,0-2.277-0.31-2.925-0.928s-0.972-1.608-0.972-2.969v-7.002
		H245.791z"/><path d="M261.426,82.123c0.475,0,0.902,0.039,1.279,0.117l-0.225,1.504c-0.443-0.098-0.834-0.146-1.172-0.146
		c-0.865,0-1.606,0.352-2.222,1.055s-0.923,1.579-0.923,2.627v5.742h-1.621V82.318h1.338l0.186,1.982h0.078
		c0.396-0.696,0.875-1.233,1.436-1.611S260.756,82.123,261.426,82.123z"/><path d="M267.051,93.021l-4.063-10.703h1.738l2.305,6.348c0.521,1.484,0.826,2.448,0.918,2.891h0.078
		c0.072-0.345,0.298-1.06,0.679-2.144s1.235-3.449,2.563-7.095h1.738l-4.063,10.703H267.051z"/><path d="M279.248,93.217c-1.582,0-2.83-0.481-3.745-1.445s-1.372-2.302-1.372-4.014
		c0-1.726,0.425-3.096,1.274-4.111s1.991-1.523,3.423-1.523c1.342,0,2.402,0.441,3.184,1.323s1.172,2.046,1.172,3.491v1.025h-7.373
		c0.033,1.257,0.35,2.21,0.952,2.861s1.45,0.977,2.544,0.977c1.152,0,2.291-0.241,3.418-0.723v1.445
		c-0.572,0.247-1.115,0.425-1.626,0.532S279.971,93.217,279.248,93.217z M278.809,83.48c-0.859,0-1.545,0.28-2.056,0.84
		s-0.812,1.335-0.903,2.324h5.596c0-1.022-0.229-1.805-0.684-2.349S279.654,83.48,278.809,83.48z"/><path d="M284.248,82.318h1.738l2.344,6.104c0.514,1.394,0.834,2.399,0.957,3.018h0.078
		c0.084-0.332,0.262-0.9,0.532-1.704s1.153-3.276,2.651-7.417h1.738l-4.6,12.188c-0.455,1.204-0.988,2.059-1.597,2.563
		s-1.356,0.757-2.241,0.757c-0.494,0-0.982-0.056-1.465-0.166v-1.299c0.357,0.078,0.758,0.117,1.201,0.117
		c1.113,0,1.908-0.625,2.383-1.875l0.596-1.523L284.248,82.318z"/><path d="M302.93,90.102c0,0.996-0.371,1.765-1.113,2.305s-1.783,0.811-3.125,0.811c-1.42,0-2.525-0.225-3.32-0.674
		v-1.504c0.514,0.261,1.066,0.466,1.655,0.615s1.157,0.225,1.704,0.225c0.846,0,1.498-0.135,1.953-0.405s0.684-0.682,0.684-1.235
		c0-0.417-0.181-0.773-0.542-1.069s-1.065-0.646-2.114-1.05c-0.996-0.371-1.704-0.695-2.124-0.972s-0.732-0.591-0.938-0.942
		s-0.308-0.771-0.308-1.26c0-0.872,0.355-1.561,1.064-2.065s1.684-0.757,2.92-0.757c1.152,0,2.279,0.234,3.379,0.703l-0.576,1.318
		c-1.074-0.442-2.047-0.664-2.92-0.664c-0.768,0-1.348,0.12-1.738,0.361s-0.586,0.573-0.586,0.996c0,0.286,0.073,0.53,0.22,0.732
		s0.382,0.394,0.708,0.576s0.951,0.446,1.875,0.791c1.27,0.462,2.127,0.928,2.573,1.396S302.93,89.392,302.93,90.102z"/><path d="M305.332,91.986c0-0.437,0.1-0.767,0.298-0.991s0.483-0.337,0.854-0.337c0.377,0,0.672,0.112,0.884,0.337
		s0.317,0.555,0.317,0.991c0,0.423-0.107,0.749-0.322,0.977s-0.508,0.342-0.879,0.342c-0.332,0-0.607-0.103-0.825-0.308
		S305.332,92.455,305.332,91.986z"/></g></g></svg>